# Blender 3.3.1
# www.blender.org
mtllib E.mtl
o Cube
v 1.000000 1.000000 -1.000000
v 1.000000 -1.000000 -1.000000
v 1.000000 1.000000 1.000000
v 1.000000 -1.000000 1.000000
v -1.000000 1.000000 -1.000000
v -1.000000 -1.000000 -1.000000
v -1.000000 1.000000 1.000000
v -1.000000 -1.000000 1.000000
v 1.000000 -2.951734 -1.000000
v 1.000000 -2.951734 1.000000
v -1.000000 -2.951734 -1.000000
v -1.000000 -2.951734 1.000000
v 1.000000 -4.995314 -1.000000
v 1.000000 -4.995314 1.000000
v -1.000000 -4.995314 -1.000000
v -1.000000 -4.995314 1.000000
v 1.000000 -6.992970 -1.000000
v 1.000000 -6.992970 1.000000
v -1.000000 -6.992970 -1.000000
v -1.000000 -6.992970 1.000000
v 1.000000 -9.013589 -1.000000
v 1.000000 -9.013589 1.000000
v -1.000000 -9.013589 -1.000000
v -1.000000 -9.013589 1.000000
v 1.000000 1.000000 -4.995313
v 1.000000 -1.000000 -4.995313
v -1.000000 1.000000 -4.995313
v -1.000000 -1.000000 -4.995313
v 1.000000 -6.992970 -4.995313
v -1.000000 -6.992970 -4.995313
v 1.000000 -9.013589 -4.995313
v -1.000000 -9.013589 -4.995313
v 1.000000 -2.951734 -3.020618
v -1.000000 -2.951734 -3.020618
v 1.000000 -4.995314 -3.020618
v -1.000000 -4.995314 -3.020618
vn -0.0000 1.0000 -0.0000
vn -0.0000 -0.0000 1.0000
vn -1.0000 -0.0000 -0.0000
vn -0.0000 -0.0000 -1.0000
vn 1.0000 -0.0000 -0.0000
vn -0.0000 -1.0000 -0.0000
vt 0.625000 0.500000
vt 0.375000 0.500000
vt 0.625000 0.750000
vt 0.375000 0.750000
vt 0.625000 0.250000
vt 0.875000 0.500000
vt 0.375000 0.250000
vt 0.875000 0.750000
vt 0.625000 1.000000
vt 0.625000 0.000000
vt 0.375000 1.000000
vt 0.375000 0.000000
vt 0.375000 0.500000
vt 0.375000 0.750000
vt 0.375000 0.250000
vt 0.375000 1.000000
vt 0.375000 0.000000
vt 0.375000 0.500000
vt 0.375000 0.750000
vt 0.375000 0.250000
vt 0.375000 1.000000
vt 0.375000 0.000000
vt 0.375000 0.500000
vt 0.375000 0.750000
vt 0.375000 0.250000
vt 0.375000 1.000000
vt 0.375000 0.000000
vt 0.375000 0.500000
vt 0.375000 0.750000
vt 0.375000 0.250000
vt 0.125000 0.500000
vt 0.125000 0.750000
vt 0.375000 1.000000
vt 0.375000 0.000000
vt 0.625000 0.500000
vt 0.375000 0.500000
vt 0.625000 0.250000
vt 0.875000 0.500000
vt 0.375000 0.250000
vt 0.375000 0.500000
vt 0.375000 0.250000
vt 0.375000 0.500000
vt 0.375000 0.250000
vt 0.125000 0.500000
vt 0.375000 0.500000
vt 0.375000 0.250000
vt 0.375000 0.500000
vt 0.375000 0.250000
s 0
usemtl Material
f 1/1/1 5/6/1 7/8/1 3/3/1
f 4/4/2 3/3/2 7/9/2 8/11/2
f 8/12/3 7/10/3 5/5/3 6/7/3
f 6/7/4 2/2/4 9/13/4 11/15/4
f 2/2/5 1/1/5 3/3/5 4/4/5
f 23/30/3 19/25/3 30/41/3 32/43/3
f 10/14/2 12/16/2 16/21/2 14/19/2
f 4/4/2 8/11/2 12/16/2 10/14/2
f 8/12/3 6/7/3 11/15/3 12/17/3
f 2/2/5 4/4/5 10/14/5 9/13/5
f 14/19/2 16/21/2 20/26/2 18/24/2
f 12/17/3 11/15/3 15/20/3 16/22/3
f 9/13/5 10/14/5 14/19/5 13/18/5
f 11/15/1 9/13/1 33/45/1 34/46/1
f 17/23/5 18/24/5 22/29/5 21/28/5
f 16/22/3 15/20/3 19/25/3 20/27/3
f 13/18/5 14/19/5 18/24/5 17/23/5
f 15/20/4 13/18/4 17/23/4 19/25/4
f 23/31/6 21/28/6 22/29/6 24/32/6
f 1/1/5 2/2/5 26/36/5 25/35/5
f 18/24/2 20/26/2 24/33/2 22/29/2
f 20/27/3 19/25/3 23/30/3 24/34/3
f 28/39/4 27/37/4 25/35/4 26/36/4
f 30/41/4 29/40/4 31/42/4 32/43/4
f 19/25/1 17/23/1 29/40/1 30/41/1
f 6/7/3 5/5/3 27/37/3 28/39/3
f 2/2/6 6/7/6 28/39/6 26/36/6
f 5/6/1 1/1/1 25/35/1 27/38/1
f 17/23/5 21/28/5 31/42/5 29/40/5
f 21/28/6 23/31/6 32/44/6 31/42/6
f 34/46/4 33/45/4 35/47/4 36/48/4
f 9/13/5 13/18/5 35/47/5 33/45/5
f 13/18/6 15/20/6 36/48/6 35/47/6
f 15/20/3 11/15/3 34/46/3 36/48/3
