# Blender 3.3.1
# www.blender.org
mtllib F.mtl
o Cube
v 1.000000 1.000000 -1.000000
v 1.000000 -1.000000 -1.000000
v 1.000000 1.000000 1.000000
v 1.000000 -1.000000 1.000000
v -1.000000 1.000000 -1.000000
v -1.000000 -1.000000 -1.000000
v -1.000000 1.000000 1.000000
v -1.000000 -1.000000 1.000000
v 1.000000 -2.951734 -1.000000
v 1.000000 -2.951734 1.000000
v -1.000000 -2.951734 -1.000000
v -1.000000 -2.951734 1.000000
v 1.000000 -4.995314 -1.000000
v 1.000000 -4.995314 1.000000
v -1.000000 -4.995314 -1.000000
v -1.000000 -4.995314 1.000000
v 1.000000 -8.944704 -1.000000
v 1.000000 -8.944704 1.000000
v -1.000000 -8.944704 -1.000000
v -1.000000 -8.944704 1.000000
v 1.000000 1.000000 -5.018275
v 1.000000 -1.000000 -5.018275
v -1.000000 1.000000 -5.018275
v -1.000000 -1.000000 -5.018275
v 1.000000 -2.951734 -2.997656
v -1.000000 -2.951734 -2.997656
v 1.000000 -4.995314 -2.997656
v -1.000000 -4.995314 -2.997656
vn -0.0000 1.0000 -0.0000
vn -0.0000 -0.0000 1.0000
vn -1.0000 -0.0000 -0.0000
vn -0.0000 -0.0000 -1.0000
vn 1.0000 -0.0000 -0.0000
vn -0.0000 -1.0000 -0.0000
vt 0.625000 0.500000
vt 0.375000 0.500000
vt 0.625000 0.750000
vt 0.375000 0.750000
vt 0.625000 0.250000
vt 0.875000 0.500000
vt 0.375000 0.250000
vt 0.875000 0.750000
vt 0.625000 1.000000
vt 0.625000 0.000000
vt 0.375000 1.000000
vt 0.375000 0.000000
vt 0.375000 0.500000
vt 0.375000 0.750000
vt 0.375000 0.250000
vt 0.375000 1.000000
vt 0.375000 0.000000
vt 0.375000 0.500000
vt 0.375000 0.750000
vt 0.375000 0.250000
vt 0.375000 0.000000
vt 0.375000 1.000000
vt 0.375000 0.500000
vt 0.375000 0.750000
vt 0.125000 0.500000
vt 0.375000 0.250000
vt 0.375000 0.000000
vt 0.125000 0.750000
vt 0.375000 1.000000
vt 0.625000 0.500000
vt 0.375000 0.500000
vt 0.625000 0.250000
vt 0.875000 0.500000
vt 0.375000 0.250000
vt 0.375000 0.500000
vt 0.375000 0.250000
vt 0.375000 0.500000
vt 0.375000 0.250000
s 0
usemtl Material
f 1/1/1 5/6/1 7/8/1 3/3/1
f 4/4/2 3/3/2 7/9/2 8/11/2
f 8/12/3 7/10/3 5/5/3 6/7/3
f 6/7/4 2/2/4 9/13/4 11/15/4
f 2/2/5 1/1/5 3/3/5 4/4/5
f 6/7/3 5/5/3 23/32/3 24/34/3
f 10/14/2 12/16/2 16/22/2 14/19/2
f 4/4/2 8/11/2 12/16/2 10/14/2
f 8/12/3 6/7/3 11/15/3 12/17/3
f 2/2/5 4/4/5 10/14/5 9/13/5
f 16/21/3 15/20/3 19/26/3 20/27/3
f 12/17/3 11/15/3 15/20/3 16/21/3
f 9/13/5 10/14/5 14/19/5 13/18/5
f 9/13/5 13/18/5 27/37/5 25/35/5
f 19/25/6 17/23/6 18/24/6 20/28/6
f 13/18/5 14/19/5 18/24/5 17/23/5
f 15/20/4 13/18/4 17/23/4 19/26/4
f 14/19/2 16/22/2 20/29/2 18/24/2
f 24/34/4 23/32/4 21/30/4 22/31/4
f 2/2/6 6/7/6 24/34/6 22/31/6
f 5/6/1 1/1/1 21/30/1 23/33/1
f 1/1/5 2/2/5 22/31/5 21/30/5
f 26/36/4 25/35/4 27/37/4 28/38/4
f 13/18/6 15/20/6 28/38/6 27/37/6
f 15/20/3 11/15/3 26/36/3 28/38/3
f 11/15/1 9/13/1 25/35/1 26/36/1
