# Blender 3.3.1
# www.blender.org
mtllib R.mtl
o Cube
v 1.000000 1.000000 -1.000000
v 1.000000 -1.000000 -1.000000
v 1.000000 -1.000000 1.000000
v -1.000000 1.000000 -1.000000
v -1.000000 -1.000000 -1.000000
v -1.000000 -1.000000 1.000000
v 1.000000 -2.951734 -1.000000
v 1.000000 -2.951734 1.000000
v -1.000000 -2.951734 -1.000000
v -1.000000 -2.951734 1.000000
v 1.000000 -4.995314 -1.000000
v 1.000000 -4.995314 1.000000
v -1.000000 -4.995314 -1.000000
v -1.000000 -4.995314 1.000000
v 1.000000 -6.992970 -1.000000
v 1.000000 -6.992970 1.000000
v -1.000000 -6.992970 -1.000000
v -1.000000 -6.992970 1.000000
v 1.000000 -9.013589 -1.000000
v 1.000000 -9.013589 1.000000
v -1.000000 -9.013589 -1.000000
v -1.000000 -9.013589 1.000000
v 1.000000 1.000000 -3.020618
v 1.000000 -1.000000 -3.020618
v -1.000000 1.000000 -3.020618
v -1.000000 -1.000000 -3.020618
v 1.000000 -1.000000 -5.018275
v -1.000000 -1.000000 -5.018275
v 1.000000 -2.974695 -3.020618
v -1.000000 -2.974695 -3.020618
v 1.000000 -2.974695 -5.018275
v -1.000000 -2.974695 -5.018275
v 1.000000 -4.995314 -3.020618
v -1.000000 -4.995314 -3.020618
v 1.000000 -2.974695 -0.977039
v -1.000000 -2.974695 -0.977039
v 1.000000 -4.995314 -0.977039
v -1.000000 -4.995314 -0.977039
v 1.000000 -4.995314 -3.020618
v 1.000000 -2.974695 -5.018275
v -1.000000 -2.974695 -5.018275
v -1.000000 -4.995314 -3.020618
v 1.000000 -1.000000 -5.018275
v 1.000000 1.000000 -3.020618
v -1.000000 1.000000 -3.020618
v -1.000000 -1.000000 -5.018275
v 1.000000 1.000000 -1.000000
v 1.000000 -1.000000 1.000000
v -1.000000 -1.000000 1.000000
v -1.000000 1.000000 -1.000000
v 1.000000 -9.013589 -4.995313
v -1.000000 -9.013589 -4.995313
v 1.000000 -6.958936 -4.995313
v 1.000000 -4.995314 -3.031690
v -1.000000 -4.995314 -3.031690
v -1.000000 -6.958936 -4.995313
v 1.000000 -9.013589 -3.007966
v -1.000000 -9.013589 -3.007966
vn -1.0000 -0.0000 -0.0000
vn -0.0000 1.0000 -0.0000
vn -0.0000 -0.0000 -1.0000
vn -0.0000 -0.0000 1.0000
vn 1.0000 -0.0000 -0.0000
vn -0.0000 -1.0000 -0.0000
vn -0.0000 -0.7031 -0.7111
vn -0.0000 0.7067 -0.7075
vn -0.0000 0.7071 0.7071
vn -0.0000 0.7071 -0.7071
vn -0.0000 -0.7049 0.7093
vt 0.625000 0.500000
vt 0.375000 0.500000
vt 0.375000 0.750000
vt 0.875000 0.500000
vt 0.625000 0.250000
vt 0.375000 0.250000
vt 0.375000 1.000000
vt 0.375000 0.000000
vt 0.375000 0.500000
vt 0.375000 0.750000
vt 0.375000 0.250000
vt 0.375000 1.000000
vt 0.375000 0.000000
vt 0.375000 0.500000
vt 0.375000 0.750000
vt 0.375000 0.250000
vt 0.375000 1.000000
vt 0.375000 0.000000
vt 0.375000 0.500000
vt 0.375000 0.750000
vt 0.375000 0.250000
vt 0.375000 1.000000
vt 0.375000 0.000000
vt 0.375000 0.500000
vt 0.375000 0.750000
vt 0.125000 0.500000
vt 0.375000 0.250000
vt 0.125000 0.750000
vt 0.375000 1.000000
vt 0.375000 0.000000
vt 0.625000 0.500000
vt 0.375000 0.500000
vt 0.875000 0.500000
vt 0.625000 0.250000
vt 0.375000 0.250000
vt 0.375000 0.500000
vt 0.375000 0.250000
vt 0.375000 0.500000
vt 0.375000 0.250000
vt 0.375000 0.500000
vt 0.375000 0.250000
vt 0.375000 0.500000
vt 0.375000 0.250000
vt 0.375000 0.500000
vt 0.375000 0.250000
vt 0.375000 0.500000
vt 0.375000 0.250000
vt 0.375000 0.500000
vt 0.375000 0.500000
vt 0.375000 0.250000
vt 0.375000 0.250000
vt 0.375000 0.500000
vt 0.625000 0.500000
vt 0.875000 0.500000
vt 0.625000 0.250000
vt 0.375000 0.250000
vt 0.625000 0.750000
vt 0.625000 0.500000
vt 0.375000 0.750000
vt 0.375000 0.000000
vt 0.375000 1.000000
vt 0.625000 0.250000
vt 0.875000 0.500000
vt 0.625000 1.000000
vt 0.375000 0.500000
vt 0.125000 0.500000
vt 0.375000 0.250000
vt 0.375000 0.500000
vt 0.375000 0.500000
vt 0.375000 0.250000
vt 0.375000 0.250000
vt 0.375000 0.500000
vt 0.125000 0.500000
vt 0.375000 0.250000
s 0
usemtl Material
f 6/8/1 49/60/1 50/62/1 4/5/1 5/6/1
f 1/1/2 4/4/2 50/63/2 47/58/2
f 5/6/3 2/2/3 7/9/3 9/11/3
f 3/3/2 48/59/2 49/61/2 6/7/2
f 4/4/2 1/1/2 23/31/2 25/33/2
f 8/10/4 10/12/4 14/17/4 12/15/4
f 3/3/4 6/7/4 10/12/4 8/10/4
f 6/8/1 5/6/1 9/11/1 10/13/1
f 2/2/5 3/3/5 8/10/5 7/9/5
f 12/15/4 14/17/4 18/22/4 16/20/4
f 10/13/1 9/11/1 13/16/1 14/18/1
f 7/9/5 8/10/5 12/15/5 11/14/5
f 9/11/3 7/9/3 11/14/3 13/16/3
f 15/19/5 16/20/5 20/25/5 19/24/5
f 14/18/1 13/16/1 17/21/1 18/23/1
f 11/14/5 12/15/5 16/20/5 15/19/5
f 13/16/2 11/14/2 54/69/2 55/70/2
f 21/26/6 19/24/6 20/25/6 22/28/6
f 21/27/3 17/21/3 15/19/3 19/24/3
f 16/20/4 18/22/4 22/29/4 20/25/4
f 18/23/1 17/21/1 21/27/1 22/30/1
f 1/1/5 2/2/5 24/32/5 23/31/5
f 5/6/1 4/5/1 25/34/1 26/35/1
f 2/2/6 5/6/6 26/35/6 24/32/6
f 25/33/2 23/31/2 44/53/2 45/54/2
f 28/37/3 27/36/3 31/40/3 32/41/3
f 26/35/1 25/34/1 45/55/1 46/56/1 28/37/1
f 28/37/2 46/56/2 43/52/2 27/36/2
f 30/39/1 32/41/1 41/50/1 42/51/1 34/43/1
f 26/35/1 28/37/1 32/41/1 30/39/1
f 24/32/4 26/35/4 30/39/4 29/38/4
f 27/36/5 24/32/5 29/38/5 31/40/5
f 31/40/5 29/38/5 33/42/5 39/48/5 40/49/5
f 33/42/2 34/43/2 42/51/2 39/48/2
f 33/42/5 29/38/5 35/44/5 37/46/5
f 35/44/4 36/45/4 38/47/4 37/46/4
f 34/43/6 33/42/6 37/46/6 38/47/6
f 30/39/1 34/43/1 38/47/1 36/45/1
f 29/38/2 30/39/2 36/45/2 35/44/2
f 39/48/7 42/51/7 41/50/7 40/49/7
f 32/41/2 31/40/2 40/49/2 41/50/2
f 45/55/8 44/53/8 43/52/8 46/56/8
f 23/31/5 24/32/5 27/36/5 43/52/5 44/53/5
f 47/57/9 50/64/9 49/61/9 48/59/9
f 2/2/5 1/1/5 47/58/5 48/59/5 3/3/5
f 11/14/5 15/19/5 57/72/5 51/65/5 53/68/5 54/69/5
f 53/68/10 56/71/10 55/70/10 54/69/10
f 53/68/3 51/65/3 52/67/3 56/71/3
f 17/21/11 58/74/11 57/72/11 15/19/11
f 57/72/6 58/73/6 52/66/6 51/65/6
f 58/74/1 17/21/1 13/16/1 55/70/1 56/71/1 52/67/1
